<?xml version="1.0" encoding="UTF-8"?>
<svg id="_圖層_1" data-name="圖層 1" xmlns="http://www.w3.org/2000/svg" viewBox="0 0 841.89 595.28">
  <defs>
    <style>
      .cls-1 {
        fill: #060001;
      }

      .cls-2 {
        fill: #535051;
      }

      .cls-3 {
        fill: #231815;
      }

      .cls-4 {
        fill: #fff;
      }

      .cls-5 {
        fill: #1a0b08;
      }
    </style>
  </defs>
  <circle class="cls-2" cx="202.51" cy="291.57" r="103.27"/>
  <g>
    <polygon class="cls-4" points="151.16 380.5 99.82 291.57 151.16 202.64 253.86 202.64 305.2 291.57 253.86 380.5 151.16 380.5"/>
    <path class="cls-1" d="M253.57,203.14l51.06,88.43-51.06,88.43h-102.11l-51.06-88.43,51.06-88.43h102.11M254.14,202.14h-103.27l-51.63,89.43,51.63,89.43h103.27l51.63-89.43-51.63-89.43h0Z"/>
  </g>
  <circle class="cls-3" cx="202.51" cy="291.57" r="20.49"/>
  <g>
    <path class="cls-5" d="M393.88,217.71c3.62-.57,6.1-.71,7.43-.43,2.86,1.14,4.77,3.05,5.72,5.72.29,1.71-.38,4.57-2,8.58-2.95,9.06-4.96,20.44-6,34.17-.38,2.67.48,4,2.57,4l1.86.14c2.76.86,2.72,2.39-.14,4.58-.67.57-1.34.95-2,1.14-2.29.95-3.53,2.91-3.72,5.86v9.72c.76,4.96,3.62,7.29,8.58,7,3.62-.95,4.29.1,2,3.15-3.72,5.43-7.01,8.58-9.86,9.43-4.29-.86-6.81-3.95-7.58-9.29-.1-6.38,0-13.01.29-19.87.09-2.29-1.29-3.52-4.15-3.72-3.14-.47-6.34-.76-9.58-.86-2.67.29-4.53,1.34-5.57,3.15-6.58,12.96-13.68,24.06-21.3,33.31-3.43,3.71-7.15,6.29-11.15,7.72-5.43,1.24-8.01-1.28-7.72-7.57-.38-4.29,1.57-9.34,5.86-15.15,2.38-2.57,3.62-3.62,3.72-3.14-2.1,4.57-3.05,8.62-2.86,12.15.76,2.86,2.67,3.24,5.72,1.14,6.67-5.24,13.15-14.1,19.44-26.59,1.33-2.48,1.29-3.62-.14-3.43-1.43,0-2.24-.19-2.43-.57,1.05-1.52,3.05-3.19,6-5,1.14-.47,1.95-1.05,2.43-1.71,7.15-13.91,13.2-27.25,18.15-40.03,1.43-4,1.95-6.86,1.57-8.58-1.62-3.43,0-5.1,4.86-5ZM395.31,234.72c.38-2.86-.19-2.67-1.72.57-4.67,10.39-9.72,20.92-15.15,31.59-1.14,2.39-.24,3.67,2.72,3.86,2.48.67,5,.76,7.58.29,1.9-.48,3-2.14,3.29-5,.76-10.39,1.86-20.82,3.29-31.31Z"/>
    <path class="cls-5" d="M455.59,249.16c4.38-2.1,8.01-1.48,10.86,1.86.57,3.91-.38,8.96-2.86,15.15-.95,3.05-1.24,4.67-.86,4.86,4.19.1,8.39-2.43,12.58-7.58,9.05-10.1,16.63-15.01,22.73-14.72,3.62.76,5.15,3.05,4.57,6.86-.1,2-1.48,3.62-4.15,4.86l-2.86,2c-3.53,3.05-5.1,3.52-4.72,1.43.67-1.71,1-2.76,1-3.15-2.1-1.43-5.29.05-9.58,4.43-8.1,8.67-14.63,12.96-19.59,12.87-1.62-.19-2.91,1.14-3.86,4-1.14,3.53-2.14,7.2-3,11.01-1.24,4-1.67,7.06-1.29,9.15.38.38,1.43.29,3.15-.29,2.19-.66,1.91,1-.86,5-1.43,1.62-2.48,3.24-3.15,4.86-3.43,2.57-6.29,1.95-8.58-1.86-.57-2.48-.38-5.33.57-8.58,5.43-20.01,8.81-33.54,10.15-40.6,0-2.28-.29-3.72-.86-4.29-.57-.09-2.29.33-5.15,1.29l-2.86.86c-.95-.09-1.53-.33-1.72-.72.19-.47,1.72-1.76,4.57-3.86,1.9-1.81,3.81-3.43,5.72-4.86Z"/>
    <path class="cls-5" d="M552.47,250.3c4.1-1.81,8.39-2.05,12.86-.72,1.91,1.91,3.81,2.14,5.72.72,2-1.43,3.67-1.48,5-.14,0,.67-1.19,2.76-3.57,6.29-4.67,7.82-8.2,15.44-10.58,22.87-1.53,4.38-3.57,12.01-6.15,22.87-2.29,8.77-5.91,16.39-10.87,22.87-5.53,6.1-11.2,9.15-17.01,9.15-2.29.29-4.29-.76-6-3.15-1.05-3.24-.05-5.67,3-7.29,2.76-2.76,4.33-4.1,4.72-4,.29.47.33,1.43.14,2.86-.19,1.52-.14,2.48.14,2.86,1.62.95,3.43.76,5.43-.57,3.91-2.57,6.53-5.53,7.86-8.86,1.24-2.28,2.33-5.1,3.29-8.43.86-2.86.19-3.52-2-2-3.91,3.43-7.39,5.95-10.44,7.57-9.15,3.53-14.68.43-16.58-9.29-.29-8.29,1.91-16.58,6.58-24.87,5.81-11.91,15.3-21.49,28.45-28.73ZM554.61,258.74c-5.81.57-11.58,4.57-17.3,12.01-7.63,10.67-11.06,20.2-10.29,28.59,0,2,1.38,3.43,4.15,4.29,4.48,1.05,9.39-1.15,14.72-6.58,2.57-2.57,4.05-4.81,4.43-6.72,2-7.81,4.81-15.44,8.43-22.87,1.52-2.09,2.34-3.95,2.43-5.58-.67-2.76-2.86-3.81-6.58-3.14Z"/>
    <path class="cls-5" d="M621.18,248.44c1.91-.76,3.62-.71,5.15.14,3.24,1.81,3.81,4.96,1.72,9.43-6.67,15.73-11.82,28.78-15.44,39.17-.29,2.48.09,3.77,1.14,3.86,4.1-.66,8.58-3.38,13.44-8.15,8.38-7.72,15.1-16.53,20.16-26.45,1.91-3.81,4-7.62,6.29-11.44,2.95-4.19,6.48-5.72,10.58-4.57.47.48-.48,2.53-2.86,6.15-9.06,12.86-14.87,27.64-17.44,44.31,0,2.77.19,4.53.57,5.29.57,1.05,2.29,1,5.15-.14.47.19.71.52.71,1-.29.48-1.48,1.48-3.57,3-1.81,1.24-3.05,2.52-3.72,3.86-3.81,3.33-6.29,3.29-7.43-.14-.95-4.1-.52-10.63,1.29-19.59.76-2.57,0-2.43-2.29.43-8.96,12.01-18.49,18.73-28.59,20.15-6.67-.29-8.39-3.76-5.15-10.44,7.05-14.48,12.44-29.11,16.15-43.88,1.81-3.24,1.14-4.95-2-5.15-1.62-.29-2.1-.81-1.43-1.57,2.67-1.24,5.19-3,7.58-5.29Z"/>
    <path class="cls-5" d="M704.77,255.88c11.05-8.01,22.16-9.91,33.31-5.72,4.67,2.28,5.77,4.96,3.29,8.01-2.29.86-4.53,2.9-6.72,6.15-.48.19-1.34-1.19-2.57-4.15-4-3.62-9.67-4.19-17.01-1.71-6,2.38-9.15,5.57-9.43,9.57-.1,2.67,2.72,5.53,8.43,8.58,3.81,1.71,7.62,3.62,11.44,5.72,5.43,3.15,7.81,6.53,7.15,10.15-1.53,8.01-7.43,14.29-17.73,18.87-8.2,4.19-16.72,4.57-25.59,1.14-3.15-2.19-4.72-4.24-4.72-6.15s.48-3.33,1.43-4.29l3.15-4c.95-.76,1.71.29,2.29,3.15,1.24,2.57,2.95,4.05,5.15,4.43,8.39,2.67,16.06.57,23.01-6.29,2-2.48,2.72-4.96,2.15-7.43-1.62-3.24-5.53-6.24-11.72-9.01-4.96-2.19-8.72-4.72-11.29-7.58-4.57-6.1-2.57-12.58,6-19.44Z"/>
  </g>
  <g>
    <path class="cls-5" d="M430.42,375.3c1.16-.63,2.19-.25,3.09,1.15.16.47.18,1.13.05,2-.33,4.05-.47,9.3-.4,15.74.3,2.92.33,4.98.1,6.18-.27.9-.66,1.19-1.2.9-1.66-1.7-2.26-3.79-1.79-6.28.23-1.6.42-4.38.55-8.37l.25-8.62c0-.8-.15-1.35-.45-1.65-.53-.1-.6-.45-.2-1.05ZM439.09,364.54c.83-.76,1.66-.72,2.49.15,1.39,1.13,1.66,2.12.8,2.99-2.32,1.76-3.65,3.94-3.99,6.53-.3,2.29.66,4.25,2.89,5.88.73.46,1.13,1.01,1.2,1.64-.37.96-1.2,1.35-2.49,1.15-1.86-.13-3.79-.71-5.78-1.74l-.1-.4c.1-.16.65-.15,1.64.05.83.13,1.6.07,2.29-.2.4-.36.33-.93-.2-1.7-1.36-2.49-1.45-5.65-.25-9.47-.13-.13-.6-.01-1.39.35-1.56.67-3.51.68-5.83.05-.37-.3-.07-.56.9-.8,3.32-.76,5.93-2.26,7.82-4.48ZM456.78,368.37c2.79-.76,5.33-1.11,7.63-1.05,1.49.13,2.61.88,3.34,2.24.03.36-.18.66-.65.89-.7.37-1.45.35-2.24-.05-.8-.3-1.99-.4-3.59-.3-4.78.27-8.77,1.41-11.96,3.44-1.63.86-3.71,1.15-6.23.85-.83-.03-1.06-.38-.7-1.05.76-.2,1.58-.46,2.44-.79,3.32-1.66,5.98-2.73,7.97-3.19.86-.13,2.19-.46,3.99-1ZM452.99,376.95c1.23-.7,2.27-.86,3.14-.5.27.2.32.78.15,1.74-1.06,1.9-2.01,3.79-2.84,5.68-.27.8-.15,1.05.35.75.6-.33,1.28-.38,2.04-.15.9.4,1.28.95,1.15,1.64-.17.17-.75.35-1.74.55l-3.04,1.35c-.6.4-1.26.26-1.99-.4-.4-.4-.47-.86-.2-1.39,1.03-1.6,1.93-3.45,2.69-5.58.23-1.1-.07-1.23-.9-.4-2.03,1.96-3.31,3.81-3.84,5.53-.1,1.06-.32,1.86-.65,2.39-.27.46-.78.35-1.55-.35-1.13-1.23-1.24-2.99-.35-5.28.37-1,.78-1.99,1.25-2.99.3-1.06.51-1.64.65-1.74.66.13.93.75.8,1.84l-.2,1.7c0,.83.38.8,1.15-.1.96-1.23,2.28-2.66,3.94-4.28ZM459.32,372.56c1.36-.43,2.26.08,2.69,1.54,1.03,6.25,1.48,12.44,1.35,18.59-.17,3.32-.98,5.98-2.44,7.97-2.62,2.16-5.7,3.12-9.22,2.89-.96.13-1.51-.18-1.64-.95.36-.4,1.01-.66,1.94-.8,4.72-1.16,7.44-4.37,8.17-9.62,1.1-7.71,1.08-13.67-.05-17.89-.63-1.03-.9-1.61-.8-1.74Z"/>
    <path class="cls-5" d="M490.54,365.24c7.51-2.46,14.22-3.7,20.13-3.74,1.53-.1,2.86.42,3.99,1.54.76.86.61,1.53-.45,1.99-.47.17-1.06.09-1.79-.25-3.92-1.26-9.22-1-15.9.8-1.53.46-3.19,1.26-4.98,2.39-.43.27-1.33.35-2.69.25-1.83,0-3.12-.27-3.89-.8-.2-.2.33-.53,1.6-1,1.13-.13,2.46-.53,3.99-1.19ZM486.46,381.83c.17-.13.7.37,1.6,1.49.6.8.81,1.73.65,2.79-.07,4.62-.2,9.3-.4,14.05.03.83-.25,1.33-.85,1.5-.27-.03-.71-.5-1.34-1.39-.4-1.06-.52-2.86-.35-5.38.1-2.66.32-5.31.65-7.97.13-1.09.18-2.21.15-3.34-.13-1.09-.17-1.68-.1-1.74ZM489.05,372.21c.4-.4.61-1.05.65-1.94.2-.07.4,0,.6.2.13.2.28.63.45,1.3.1.66.65.63,1.64-.1.86-.73,1.41-.93,1.65-.6.03.16-.45.66-1.45,1.49-1.06.99-1.71,1.99-1.94,2.99-.37,1.2-.93,1.53-1.7,1-1.1-1.86-1.06-3.31.1-4.34ZM498.17,376.95c3.62-1.13,6.93-1.53,9.92-1.2,1.53.1,2.86.62,3.99,1.55,1.23,1.03,1.93,2.34,2.09,3.94.53,6.01.66,12.56.4,19.63-.03,1.39-.53,3.06-1.5,4.98-.9,1.69-2.06,1.48-3.49-.65-.66-.83-1.24-1.38-1.74-1.65-1.06-.46-1.64-1.05-1.74-1.74.03-.17.61-.08,1.74.25,1.13.46,2.19.53,3.19.2.3-.23.53-.9.7-1.99l.1-16.64c-.17-1.66-.45-2.99-.85-3.99-.5-1.19-1.71-1.91-3.64-2.14-2.09-.2-4.43.09-7.03.85-.9.26-.98.88-.25,1.84.57,1.13.66,2.26.3,3.39-.63,3.65-.66,7.66-.1,12.01.37,2.19.08,3.79-.85,4.79-.23.17-.62-.25-1.15-1.25-.17-.56-.27-1.13-.3-1.69-.07-.8-.15-1.11-.25-.95-.43.47-1.18.33-2.24-.4-.93-1-1.86-1.13-2.79-.4-.33.3-.66.53-1,.7-1.03.5-1.61.72-1.74.65-.23-.23-.07-.58.5-1.05l1.35-1.35c.7-.86.78-1.46.25-1.79-.63-.4-1-.67-1.1-.8-.03-.53.47-.65,1.49-.35.8.16,1.38-.22,1.74-1.15l.15-.45c0-1,.1-1.51.3-1.55.27.03.75.65,1.45,1.84.23.63.2,1.21-.1,1.74-.2.37-.1.67.3.9.6.4,1,.88,1.19,1.45.3.76.45.76.45,0l.15-9.92c.13-1.39.13-2.81,0-4.24-.2-.83-.72-1.08-1.55-.75-.53.2-1.08.45-1.65.75-1.33.93-2.66,1.19-3.99.8-.93-.13-1.26-.52-1-1.15,3.62-1.43,6.38-2.44,8.27-3.04ZM494.28,382.18c-.23-.76.02-1.05.75-.85,1.06,1.06,1.39,2.19,1,3.39-.2.4.05.85.75,1.35.6.6.91,1.05.95,1.34-.13.83-.8,1.06-1.99.7-1.06-.43-2.06-.25-2.99.55l-.9.7c-1,.6-1.58.92-1.75.95-.17-.1-.23-.23-.2-.4.07-.17.42-.55,1.05-1.15,1.89-1.66,1.99-2.46.3-2.39-.8-.13-1.24-.26-1.34-.4.07-.43.4-.66,1-.7l1.39-.25c.8-.07,1.46-.6,1.99-1.6.1-.33.1-.75,0-1.25ZM509.28,366.88c1.89-.3,3.14.33,3.74,1.9,0,.56-.33,1.15-1,1.74-1.6,1.96-3.24,3.34-4.93,4.14-.17-.03-.28-.12-.35-.25l2.94-4.79.45-1.19c-.23-.4-.8-.47-1.69-.2-1.96.63-4.45,2.41-7.47,5.33-.83.93-1.38,1.41-1.65,1.45-.5.03-.91-.2-1.24-.7-.77-1.3-.45-2.71.95-4.24.83-1.23,1.3-1.81,1.39-1.74.13.1.17.53.1,1.29-.17.8-.17,1.26,0,1.39.2,0,.7-.26,1.5-.8,2.89-1.86,5.31-2.97,7.27-3.34ZM504.99,381.08c.03-.99.13-1.52.3-1.59.4-.17.86.26,1.39,1.29.43.86.53,1.53.3,1.99-.16.37-.02.63.45.8,1.13.63,1.81,1.35,2.04,2.14,0,.43-.18.73-.55.89-.17.07-.22.35-.15.85-.07,1.03-.6,2.08-1.6,3.14-.73.83-.6,1.56.4,2.19,1.2.86,1.93,1.94,2.19,3.24.23.76.07,1.28-.5,1.55-1-.07-2.19-1.13-3.59-3.19-.66-.73-1.51-.73-2.54,0-1.06.63-1.65.93-1.74.9-.13-.1-.2-.22-.2-.35.07-.13.52-.62,1.34-1.45.76-.83.76-1.54,0-2.14-.83-.53-1.26-.88-1.29-1.05.07-.2.2-.32.4-.35l1.29.4.45.15c.8.37,1.51.05,2.14-.95.4-.6.73-1.19,1-1.8.33-.89.22-1.48-.35-1.74-.7-.33-1.51-.07-2.44.8l-.45.35c-.9.63-1.45.95-1.64.95-.17-.13-.23-.26-.2-.4.37-.56.78-1.13,1.25-1.69.63-.8.4-1.29-.7-1.5-.47,0-.71-.2-.75-.6.2-.17.76-.35,1.69-.55.93-.03,1.58-.6,1.94-1.69l.1-.6Z"/>
    <path class="cls-5" d="M542.65,363.59c.3-.33,1.06-.33,2.29,0,2.03.73,2.92,2.07,2.69,4.03.17,2.03.48,4,.95,5.93.27.9.75,1.1,1.45.6l2.64-1.99c.9-.7,1.31-1.23,1.24-1.6-.27-.4-.32-.65-.15-.75.27-.03.68.08,1.24.35,1.3.2,2.14.62,2.54,1.25.3.73-.2,1.34-1.5,1.84-1.66.99-3.32,2.11-4.98,3.34-.9.66-1.21,1.39-.95,2.19.76,2.32,1.66,4.7,2.69,7.12.43.86.93.77,1.49-.3,1.43-2.89,2.08-4.92,1.94-6.08-.33-.76-.13-1.19.6-1.29.8.36,1.28.86,1.45,1.49.9,1.39,1.14,2.72.75,3.98-.67,1.53-1.73,3.19-3.19,4.99-.7.86-.78,1.72-.25,2.59,2.26,3.79,5.18,6.99,8.77,9.62,1.03.7,1.68.53,1.94-.5.33-1.16.55-2.66.65-4.49.2-.23.53.15,1,1.15.4,1.9.86,3.84,1.4,5.83.3.86.46,1.53.5,1.99-.2,1.23-1,1.66-2.39,1.29-5.48-1.99-10.02-6.31-13.6-12.95-.57-1-1.35-1.06-2.34-.2-1.73,1.46-3.12,2.34-4.19,2.64-.47-.26-.32-.71.45-1.35,1.3-1.19,2.39-2.39,3.29-3.59.57-.8.63-1.69.2-2.69-.86-1.82-1.86-4.32-2.99-7.47-.37-1.03-1.03-1.21-1.99-.55-1.56,1.17-3.06,2.48-4.48,3.94-.56.66-1.38,1.01-2.44,1.05-2.03-.23-2.99-1.33-2.89-3.29.06-.36.17-.65.3-.85.2-.3.4-.13.6.5.13,1.19.93,1.28,2.39.25,1.96-1.6,3.92-3.06,5.88-4.38.83-.6,1.1-1.39.8-2.39-.7-2.46-1.33-4.92-1.89-7.37-.17-.66-.42-1.33-.75-1.99-.17-.33-.45-.7-.85-1.09-.5-.33-.6-.6-.3-.8ZM556.4,361.6c.17-.13.75-.12,1.74.05.53.13,1.06.2,1.6.2,1.93.2,3.47,1.19,4.63,2.99.8,1.23.68,1.94-.35,2.14-.3,0-.78-.12-1.44-.35-.67-.3-1.38-.45-2.14-.45-1,.03-1.51-.07-1.54-.3.07-.2.27-.37.6-.5.83-.26.6-.85-.7-1.74l-1-.75c-.96-.7-1.43-1.13-1.39-1.3Z"/>
    <path class="cls-5" d="M600.44,361.8c.23-.26.45-.43.65-.5,1.46-.27,2.54.35,3.24,1.84.16.53.13,1.19-.1,1.99-.17.63-.28,1.26-.35,1.89-.13.89-.07,1.31.2,1.24,1.33-.23,2.27.33,2.84,1.7.03.23-.62.56-1.94,1-1,.33-1.53.99-1.59,1.99-.33,4.22-.55,8.49-.65,12.81-.03.7.5,1.01,1.6.95.8.07,1.41.29,1.84.65.73.5.86,1,.4,1.5-.23.2-.85.32-1.84.35l-.9.2c-.8.23-1.23.85-1.29,1.84-.33,1.16-.93,1.19-1.79.1-.33-.57-.93-.7-1.79-.4-2.59.76-5.1,1.88-7.53,3.34-1.83,1.66-3.84,1.99-6.03,1-.93-.27-1.13-.72-.6-1.35l1.89-.35c3.32-1.63,7.32-3.31,12.01-5.03.8-.3,1.25-.96,1.35-1.99.4-4.42.71-8.84.95-13.25.07-.76-.43-.98-1.5-.65-1.06.37-2.13.78-3.19,1.25-.76.37-1.16,1.08-1.2,2.14-.33,4.62-.47,8.24-.4,10.86,0,1-.07,1.74-.2,2.24-.27.5-.5.76-.7.79-.8-.2-1.26-.79-1.4-1.79-.3-3.22-.27-6.98.1-11.26.03-.76-.47-1.16-1.5-1.19-1.29-.1-2.44-.52-3.44-1.25-.43-.46-.63-.8-.6-1,.17-.43.61-.51,1.34-.25.9.4,1.86.35,2.89-.15,1.03-.43,1.59-1.2,1.69-2.29.2-.93.02-1.86-.55-2.79-.83-.43-.8-.93.1-1.49.76-.23,1.54-.05,2.34.55,1.06.93,1.34,2.01.85,3.24-.13.8.3,1.01,1.29.65l3.14-1.15c.76-.23,1.18-.88,1.25-1.94.43-2.29.28-3.97-.45-5.03-.56-.13-.71-.47-.45-1ZM591.71,396.58c.53-1.03.88-1.56,1.05-1.6.2.03.37.48.5,1.35.07.86.43,1.06,1.1.6.56-.36.95-.55,1.15-.55.3.17-.07.88-1.1,2.14-1,1.13-1.6,2.13-1.79,2.99-.2.66-.42,1.18-.65,1.54-.37.4-.85.37-1.45-.1-1.46-1.86-1.06-3.98,1.2-6.38ZM597.3,376.5c-.1-.6.1-.8.6-.6.86.4,1.33,1.02,1.4,1.84.16.9-.4,1.86-1.7,2.89-.47.4-.73.81-.8,1.24.07.17.6.45,1.6.85.63.2,1.15.81,1.55,1.84.1.56-.33,1.08-1.3,1.54-1.29.37-2.37.55-3.24.55-.13-.13.12-.43.75-.9,1.13-.53,1.21-1.33.25-2.39-.7-.73-.85-1.39-.45-1.99.9-1.96,1.34-3.59,1.34-4.88ZM600.48,395.68c-.37-.3-.38-.65-.05-1.05.17-.03.76.28,1.79.95,2.06,1.6,2.74,3.46,2.04,5.58-.27.46-.65.6-1.15.4-.8-.5-1.26-1.13-1.39-1.89-.1-1.13-.52-2.46-1.25-3.99ZM608.01,376.8c.1-.13.21-.22.35-.25.13.07.52.56,1.15,1.49.3.43.35,1.28.15,2.54,0,.8.51.98,1.54.55,2.92-1.36,5.58-2.26,7.97-2.69,1.59-.43,2.92-.52,3.99-.25,1.43.53,1.74,1.28.95,2.24-.8.36-2.18.53-4.13.5-.83.13-1.01.7-.55,1.7,1.43,7.07,1.39,12.62-.1,16.64-1.39,3.02-3.77,5-7.12,5.93-1.1.26-1.71.08-1.84-.55.13-.2.53-.53,1.19-1,2.36-1.39,4.14-3.9,5.33-7.52,1.26-4.02,1.48-8.5.65-13.45-.37-.8-.95-1.11-1.74-.95-1.1.27-2.24.66-3.44,1.19-.53.3-1.33.35-2.39.15-.27-.13-.4.22-.4,1.05-.13,3.65-.15,7.36-.05,11.11,0,.8-.25,1.35-.75,1.65-.83,0-1.6-.86-2.29-2.59-.33-1.19-.27-2.52.2-3.99.96-4.18,1.41-8.68,1.34-13.5ZM613.74,365.14c.33-.63,1.01-.38,2.04.75,1.99,2.12,2.06,4.12.2,5.97-2.99,2.29-5.45,3.72-7.37,4.29-.27-.1,0-.58.8-1.45,2.26-2.19,3.72-4.18,4.38-5.98.43-.8.6-1.46.5-1.99-.23-.53-.42-1.06-.55-1.59Z"/>
  </g>
</svg>