<?xml version="1.0" encoding="UTF-8"?>
<svg id="_圖層_1" data-name="圖層 1" xmlns="http://www.w3.org/2000/svg" viewBox="0 0 841.89 595.28">
  <defs>
    <style>
      .cls-1 {
        fill: #060001;
      }

      .cls-2 {
        fill: #535051;
      }

      .cls-3 {
        fill: #231815;
      }

      .cls-4 {
        fill: #fff;
      }

      .cls-5 {
        fill: #1a0b08;
      }
    </style>
  </defs>
  <circle class="cls-2" cx="265.44" cy="297.64" r="103.27"/>
  <g>
    <polygon class="cls-4" points="214.1 386.57 162.75 297.64 214.1 208.7 316.79 208.7 368.13 297.64 316.79 386.57 214.1 386.57"/>
    <path class="cls-1" d="M316.5,209.2l51.06,88.43-51.06,88.43h-102.11l-51.06-88.43,51.06-88.43h102.11M317.08,208.2h-103.27l-51.63,89.43,51.63,89.43h103.27l51.63-89.43-51.63-89.43h0Z"/>
  </g>
  <circle class="cls-3" cx="265.44" cy="297.64" r="20.49"/>
  <g>
    <path class="cls-5" d="M445.78,211.71c2.25-.35,3.79-.44,4.62-.26,1.78.71,2.96,1.89,3.55,3.55.18,1.06-.24,2.84-1.24,5.33-1.84,5.62-3.08,12.7-3.73,21.22-.24,1.66.3,2.49,1.6,2.49l1.15.09c1.72.53,1.69,1.48-.09,2.84-.41.35-.83.59-1.24.71-1.42.59-2.19,1.81-2.31,3.64v6.04c.47,3.08,2.25,4.53,5.33,4.35,2.25-.59,2.66.06,1.24,1.95-2.31,3.37-4.35,5.33-6.13,5.86-2.66-.53-4.23-2.45-4.71-5.77-.06-3.97,0-8.08.18-12.34.06-1.42-.8-2.19-2.57-2.31-1.95-.29-3.94-.47-5.95-.53-1.66.18-2.81.83-3.46,1.95-4.08,8.05-8.49,14.95-13.23,20.69-2.13,2.31-4.44,3.91-6.92,4.79-3.37.77-4.97-.8-4.79-4.7-.24-2.66.98-5.8,3.64-9.41,1.48-1.6,2.25-2.25,2.31-1.95-1.3,2.84-1.89,5.36-1.78,7.55.47,1.78,1.66,2.01,3.55.71,4.14-3.25,8.17-8.76,12.08-16.51.83-1.54.8-2.25-.09-2.13-.89,0-1.39-.12-1.51-.35.65-.95,1.89-1.98,3.73-3.11.71-.29,1.21-.65,1.51-1.06,4.44-8.64,8.2-16.93,11.27-24.86.89-2.49,1.21-4.26.98-5.33-1.01-2.13,0-3.17,3.02-3.11ZM446.67,222.28c.24-1.78-.12-1.66-1.07.35-2.9,6.45-6.04,12.99-9.41,19.62-.71,1.48-.15,2.28,1.69,2.4,1.54.41,3.11.47,4.71.18,1.18-.3,1.86-1.33,2.04-3.11.47-6.45,1.15-12.93,2.04-19.44Z"/>
    <path class="cls-5" d="M484.11,231.25c2.72-1.3,4.97-.92,6.75,1.15.35,2.43-.24,5.56-1.78,9.41-.59,1.89-.77,2.9-.53,3.02,2.6.06,5.21-1.51,7.81-4.71,5.62-6.27,10.33-9.32,14.12-9.14,2.25.47,3.2,1.9,2.84,4.26-.06,1.24-.92,2.25-2.57,3.02l-1.78,1.24c-2.19,1.89-3.17,2.19-2.93.89.41-1.06.62-1.72.62-1.95-1.3-.89-3.29.03-5.95,2.75-5.03,5.39-9.09,8.05-12.16,7.99-1.01-.12-1.81.71-2.4,2.49-.71,2.19-1.33,4.47-1.86,6.84-.77,2.49-1.04,4.38-.8,5.68.24.24.89.18,1.95-.18,1.36-.41,1.18.62-.53,3.11-.89,1.01-1.54,2.01-1.95,3.02-2.13,1.6-3.91,1.21-5.33-1.15-.35-1.54-.24-3.31.35-5.33,3.37-12.43,5.47-20.83,6.3-25.22,0-1.42-.18-2.31-.53-2.66-.36-.06-1.42.21-3.2.8l-1.78.53c-.59-.06-.95-.21-1.07-.44.12-.29,1.07-1.09,2.84-2.4,1.18-1.12,2.37-2.13,3.55-3.02Z"/>
    <path class="cls-5" d="M544.28,231.96c2.54-1.12,5.21-1.27,7.99-.44,1.18,1.19,2.37,1.33,3.55.44,1.24-.89,2.28-.92,3.11-.09,0,.41-.74,1.72-2.22,3.91-2.9,4.85-5.09,9.59-6.57,14.21-.95,2.72-2.22,7.46-3.82,14.2-1.42,5.45-3.67,10.18-6.75,14.21-3.43,3.79-6.95,5.68-10.57,5.68-1.42.18-2.66-.47-3.73-1.95-.65-2.01-.03-3.52,1.87-4.53,1.72-1.72,2.69-2.55,2.93-2.49.18.29.21.89.09,1.78-.12.94-.09,1.54.09,1.77,1.01.59,2.13.47,3.37-.35,2.43-1.6,4.05-3.43,4.88-5.5.77-1.42,1.45-3.17,2.04-5.24.53-1.78.12-2.19-1.24-1.24-2.43,2.13-4.59,3.7-6.48,4.7-5.68,2.19-9.11.27-10.3-5.77-.18-5.15,1.18-10.3,4.08-15.45,3.61-7.4,9.5-13.35,17.67-17.85ZM545.61,237.19c-3.61.35-7.19,2.84-10.74,7.46-4.74,6.63-6.87,12.55-6.39,17.76,0,1.24.86,2.13,2.57,2.66,2.78.65,5.83-.71,9.14-4.09,1.6-1.6,2.51-2.99,2.75-4.17,1.24-4.85,2.99-9.59,5.24-14.21.95-1.3,1.45-2.45,1.51-3.46-.41-1.71-1.78-2.37-4.08-1.95Z"/>
    <path class="cls-5" d="M586.96,230.8c1.18-.47,2.25-.44,3.2.09,2.01,1.12,2.37,3.08,1.07,5.86-4.14,9.77-7.34,17.88-9.59,24.33-.18,1.54.06,2.34.71,2.4,2.54-.41,5.33-2.1,8.35-5.06,5.21-4.79,9.38-10.27,12.52-16.43,1.18-2.37,2.49-4.73,3.91-7.1,1.83-2.6,4.02-3.55,6.57-2.84.29.3-.3,1.57-1.78,3.82-5.62,7.99-9.23,17.17-10.83,27.52,0,1.72.12,2.81.35,3.29.36.65,1.42.62,3.2-.09.29.12.44.32.44.62-.18.3-.92.92-2.22,1.87-1.12.77-1.9,1.57-2.31,2.4-2.37,2.07-3.91,2.04-4.62-.09-.59-2.55-.33-6.6.8-12.17.47-1.6,0-1.51-1.42.27-5.56,7.46-11.48,11.63-17.76,12.52-4.14-.18-5.21-2.34-3.2-6.48,4.38-8.99,7.72-18.08,10.03-27.26,1.12-2.01.71-3.08-1.24-3.2-1.01-.18-1.3-.5-.89-.98,1.66-.77,3.23-1.86,4.71-3.29Z"/>
    <path class="cls-5" d="M638.87,235.42c6.87-4.97,13.76-6.16,20.69-3.55,2.9,1.42,3.58,3.08,2.04,4.97-1.42.53-2.81,1.8-4.17,3.82-.3.12-.83-.74-1.6-2.58-2.49-2.25-6.01-2.6-10.57-1.06-3.73,1.48-5.68,3.46-5.86,5.95-.06,1.66,1.69,3.44,5.24,5.33,2.37,1.06,4.73,2.25,7.1,3.55,3.37,1.95,4.85,4.05,4.44,6.3-.95,4.97-4.62,8.88-11.01,11.72-5.09,2.6-10.39,2.84-15.89.71-1.95-1.36-2.93-2.63-2.93-3.82s.3-2.07.89-2.66l1.95-2.49c.59-.47,1.06.18,1.42,1.95.77,1.6,1.83,2.52,3.2,2.75,5.21,1.66,9.97.35,14.29-3.91,1.24-1.54,1.69-3.08,1.33-4.62-1.01-2.01-3.43-3.88-7.28-5.59-3.08-1.36-5.42-2.93-7.01-4.7-2.84-3.79-1.6-7.81,3.73-12.08Z"/>
  </g>
  <g>
    <path class="cls-5" d="M395.86,362.67c-.06-.7-.01-1.03.15-.99.91.85,1.36,1.94,1.36,3.28.04,1.42-.04,3.71-.25,6.87.06,2.58.07,5.2.03,7.86,0,.52-.07.88-.22,1.08-.1.31-.28.38-.53.22-1.03-1.07-1.39-2.55-1.08-4.42.12-3.43.34-7.05.65-10.86.12-.97.08-1.98-.12-3.03ZM401.46,357.66c.56-.27,1.16-.04,1.79.68.37.31.51.62.4.93-.41.91-.66,1.98-.74,3.22-.04.5.1.62.43.37.33-.19.52-.23.56-.12-.8.91-1.19,1.57-1.15,1.98l-.03,1.45c-.02.62-.06.96-.12,1.02-.29.21-.62,0-.99-.59-.19-.33-.52-.23-.99.28-.08.12-.21.26-.37.4-.6,1.01-1.27,1.17-2.01.46-.82-.82-.82-1.53.03-2.1.33-.15.43,0,.31.4-.08.41.23.4.93-.03.35-.31.7-.59,1.05-.83.62-.47.93-.96.93-1.46.02-1.28.08-2.57.19-3.87.06-.5.06-.78,0-.87-.37,0-.82.17-1.36.5-1.16.66-2.06.87-2.72.62-.17-.15-.23-.3-.19-.47.08-.14.43-.3,1.05-.46.97-.45,1.97-.96,3-1.52ZM399.35,361.84c.76-.17,1.32.18,1.67,1.02.02.35-.25.67-.8.96-.35.29-.7.53-1.05.71-.35.04-.36-.2-.03-.71.19-.33.22-.65.09-.96l-.68-.03c-.39.08-.59.06-.59-.06.17-.39.63-.7,1.39-.93ZM406.5,368.09c.76-.5,1.61-.54,2.54-.12.6.6.41,1.03-.56,1.3-.52.18-.61.41-.28.68.27.29.53.61.77.96.14.41.5.55,1.05.4.5-.12,1.04.04,1.64.5.29.23.34.47.15.71-.1.15-.55.25-1.33.31l-.53.06c-.54.15-.81.45-.81.93-.02,1.63-.33,3.19-.93,4.67-.39.87-.77,1.4-1.15,1.61-.25.02-.29-.2-.12-.65.64-1.49.84-3.25.59-5.29-.08-.5-.43-.68-1.05-.56-.39.08-.78.2-1.18.34-.54.21-.89.6-1.05,1.17l-.25,1.52c0,.74-.04,1.2-.12,1.36-.29.29-.62.22-.99-.22-.56-.52-.65-1.28-.28-2.29.16-.5-.06-.71-.68-.65-1.07.08-1.78-.25-2.1-.99.08-.1.43-.2,1.05-.28.45-.12.94-.22,1.45-.28.52-.06.75-.29.71-.68-.12-.41-.18-.66-.15-.74.35-.15.7.04,1.05.56.19.41.37.4.56-.03.19-.37.32-.55.4-.53.06.08.09.23.09.43-.02.27.26.32.84.15l.68-.15c.54-.12.71-.5.53-1.12-.21-.82-.61-1.18-1.21-1.08-.7.15-1.4.24-2.1.28-.72,0-1.24-.05-1.55-.15-.33-.19-.51-.32-.53-.4.08-.23.45-.32,1.11-.28,1.11-.25,2.35-.73,3.71-1.45ZM408.17,358.86c.06-.21.26-.15.59.15.56.81.78,1.78.68,2.91v3.09c-.16.7-.5.75-.99.16-.54-1.03-.65-2.47-.34-4.3.14-.56.16-1.23.06-2.01ZM413.25,356.73c.72-.35,1.54.01,2.44,1.09.23.21.37.5.43.87-.31,1.01-.49,1.94-.53,2.79-.02,5.57.09,12.26.34,20.08-.02.72-.36,1.32-1.02,1.79-.54.23-1.02-.03-1.45-.77-.58-.62-1.17-1.17-1.77-1.64-.56-.54-.84-.87-.84-.99.1-.08.46-.02,1.08.18,1.42.66,2.1.29,2.04-1.11-.02-6.73-.08-13.45-.19-20.18-.1-.5-.22-.77-.34-.84-1.42.5-2.43.79-3,.87-.54.15-.91,0-1.11-.43.12-.1.31-.2.56-.28,1.03-.31,2.15-.78,3.34-1.42ZM411.73,361.06c.45-.52.99-.57,1.61-.15.68.56.38,1.37-.9,2.44-.39.37-.75.77-1.08,1.21-.33.58-.25.8.25.68.31-.12.65-.21,1.02-.25.25-.04.5.04.74.25.19.31.01.66-.53,1.05l-.62.47c-.82.56-1.24.78-1.24.68,0-.08.1-.28.31-.59.29-.35.35-.54.19-.56-.12-.02-.33,0-.62.06-.41.1-.74-.04-.99-.43,0-.27.22-.73.65-1.39.39-.66.73-1.32,1.02-1.98-.04-.08-.25-.15-.62-.19-.41.06-.73.05-.96-.03-.27-.19-.09-.4.53-.65.41-.12.82-.33,1.24-.62Z"/>
    <path class="cls-5" d="M427.57,365.95c-.06-.68.01-1.01.22-.99.83.29,1.32.88,1.49,1.77.02.58-.15,1.4-.53,2.48-.89,2.93-1.36,5.2-1.42,6.81.06.5.13.78.22.87.08.02.43-.22,1.05-.71,1.4-1.47,2.49-2.81,3.25-4.02.56-.8.89-1.16.99-1.05.04.1-.04.5-.25,1.18-.66,1.73-1.72,3.79-3.19,6.19-.74,1.18-1.6,1.25-2.57.22-.46-.62-.65-1.65-.59-3.09.1-2.17.54-4.65,1.3-7.46.12-.43.13-1.16.03-2.17ZM428.81,359.51c.39-.39,1.04-.57,1.95-.53,1.07.23,1.62.92,1.64,2.07-.19.45-.5.7-.93.74-.72.15-1.45.32-2.2.53-.19-.04-.32-.1-.4-.19,0-.08.3-.42.9-1.02.6-.64.5-1.06-.31-1.27-.43,0-.65-.11-.65-.34ZM444.34,357.16c1.16-.68,2.23-.37,3.22.93.04.54-.33.79-1.11.74-1.94-.17-3.84.38-5.69,1.64-.54.43-.9.83-1.08,1.18-1.55,3.22-2.55,6.52-3,9.9-.33,1.98-.86,3.63-1.58,4.95-.95,1.73-2.35,3.34-4.21,4.83-.74.56-1.4.75-1.98.59,0-.1.32-.45.96-1.05,1.49-1.47,2.64-3.17,3.47-5.11.64-1.32,1.24-2.97,1.79-4.95,1.38-4.21,2.52-7.22,3.41-9.04.27-.62.11-.74-.46-.37-1.18.89-2.3.88-3.37-.03-.39-.31-.53-.57-.4-.77.1-.02.36-.02.77,0,.95.14,1.98-.16,3.09-.9,1.61-.7,3.26-1.35,4.95-1.95.49-.17.91-.36,1.24-.59ZM436.29,378.15c.33-.41.67-.98,1.02-1.7.39.02.55.3.46.84-.08.33-.03.66.15.99.08.04.37-.06.87-.31.56-.27.89-.34.99-.22.02.17-.25.49-.8.96-.76.62-1.31,1.21-1.64,1.77-.17.41-.33.73-.5.96-.23.23-.59.04-1.08-.56-.41-.79-.24-1.69.53-2.72ZM444.71,364.65c1.07-.29,1.83-.28,2.26.03,1.4,1.47,1.44,3.52.12,6.16-.41,1.22-1.15,2.03-2.2,2.44-.23,0-.42-.06-.59-.19-.21-.1-.49-.08-.84.06-.33.15-.42.35-.28.62.06.25.09.68.09,1.3l.62,4.67c.16,1.69-.29,2.93-1.36,3.71-.27.19-.65,0-1.15-.56l-.93-.83c-.62-.58-.89-.93-.8-1.05.08-.08.31-.06.68.06,1.03.56,1.58.25,1.64-.93.27-1.65.3-3.46.09-5.42-.12-.56-.32-.79-.59-.71-.45.25-.87.08-1.24-.5-.08-.16.01-.44.28-.83.74-.66,1.41-1.53,2.01-2.6.23-.5.01-.46-.65.09-.37.47-.73.71-1.08.71-.21-.21-.17-.45.12-.74l1.18-1.17c.74-.93,1.62-1.23,2.63-.9.41.33.29.79-.37,1.39-.64.72-1.24,1.44-1.79,2.17-.43.64-.35.77.25.4.41-.29.87-.37,1.36-.25.08.06.37-.24.87-.9,1.01-1.78,1.45-3.51,1.33-5.2-.14-.35-.49-.44-1.02-.28-1.82.58-3.47,1.45-4.95,2.63-1.03,1.15-1.28,2.47-.74,3.96.27.52.26.88-.03,1.08-.12.06-.51-.29-1.14-1.05-.78-1.44-.69-3.1.28-4.95.56-1.05,1.16-1.82,1.8-2.29.27-.1.2.28-.22,1.14-.41,1.18-.2,1.37.65.59,1.24-.85,2.48-1.48,3.71-1.89ZM442.36,360.63c.35-.27.96-.29,1.83-.06.7.39.62.96-.25,1.7-.56.5-1.11.94-1.67,1.33-.72.33-.87.08-.43-.74.33-.5.51-.95.53-1.36-.04-.1-.11-.18-.22-.22-.12-.02-.22-.07-.28-.15,0-.08.16-.25.5-.5ZM445.64,376.51c.12-.19.37-.2.74-.03.82.17,1.65.54,2.48,1.12.83.82,1.08,1.69.77,2.6-.1.1-.27.17-.5.19-.68-.06-1.35-.73-2.01-2.01-.45-.58-.96-1.12-1.52-1.64-.04-.15-.03-.22.03-.22Z"/>
    <path class="cls-5" d="M459.28,366.72c.1-.12.44.2,1.02.96.12.16.21.37.25.62.06.37.11.86.15,1.46-.04,1.98-.05,4.07-.03,6.28-.1.7.04.97.43.81.93-.35,1.89-.75,2.88-1.21.76-.39,1.18-.53,1.24-.4.02.1-.3.49-.96,1.14-.83.76-1.65,1.47-2.48,2.14-.82.82-1.98.91-3.47.25-.62-.31-.96-.53-1.02-.65-.02-.14,0-.25.06-.31.08-.08.43-.13,1.05-.15.29,0,.58-.05.87-.15.54-.17.72-.31.56-.43-.23-.27-.44-.73-.65-1.39-.02-2.62.03-5.24.15-7.86-.1-.66-.12-1.02-.06-1.08ZM463.03,358.49c0-.12.09-.18.28-.18,1.44.74,2.16,1.74,2.13,3-.35,1.36-1.73,2.82-4.15,4.36-.58.39-1.03.62-1.36.68-.1-.06-.15-.13-.15-.22,1.86-1.92,2.98-3.63,3.37-5.14.37-.74.42-1.36.16-1.86-.19-.33-.28-.55-.28-.65ZM462.68,365.83c1.65-.81,3.02-1.28,4.12-1.42.62-.12,1.2.22,1.73,1.02.39.78.54,1.61.43,2.48-.02,2.37.01,4.42.09,6.16.21,2.02,0,3.79-.62,5.32-.56,1.07-1.23,1.28-2.01.62-.31-.35-.69-.95-1.14-1.79-.45-.62-.67-.98-.65-1.09.08-.1.39,0,.93.28.8.6,1.25.33,1.33-.8.29-2.08.45-5.19.5-9.32.02-.66,0-1.13-.06-1.42-.12-.56-.53-.65-1.21-.28-1.63.93-2.84,1.32-3.62,1.18-.68-.31-.62-.62.19-.93ZM463.71,370.19c.91-.29,1.57.08,1.98,1.11.06.19-.07.45-.4.8-.78.5-1.4.95-1.86,1.36-.78.54-1.21.73-1.27.59-.04-.15.21-.54.74-1.18.47-.56.67-.99.59-1.3-.15-.35-.53-.29-1.14.19-.12-.02-.23-.09-.31-.22.19-.5.74-.95,1.67-1.36ZM474.51,359.02c-.37-.45-.32-.69.15-.71,1.9,1.01,2.39,2.2,1.49,3.56l-1.14,1.86c-.43.66-.65,1.03-.65,1.12.08.06.43-.01,1.05-.22.72-.19,1.44-.33,2.17-.43,1.79-.35,3.23.55,4.3,2.69.72,2.79.46,6.32-.77,10.58-.37,1.24-1.07,2.48-2.1,3.71-.58.62-1.2.87-1.86.74-2.27-.62-3.71-1.35-4.33-2.2.06-.1.14-.17.25-.19,2.41,1.44,4.33.75,5.76-2.07,1.28-2.43,1.86-5.52,1.73-9.25-.02-.99-.29-1.82-.8-2.48-.74-.8-2.01-.81-3.81-.03-1.79.68-2.97,1.49-3.53,2.41-.19.29-.48.33-.9.12-.74-.41-.78-1.1-.12-2.07,1.73-2.29,2.85-4.28,3.34-5.97,0-.47-.07-.87-.22-1.18ZM472.4,371.43c.1-.19.45-.23,1.05-.12.29.06.58.15.87.28,1.3.41,1.98,1.25,2.04,2.51-.04.91-.48,1.12-1.33.62-.47-.35-.81-.74-1.02-1.18-.21-.45-.49-.87-.84-1.24-.52-.5-.77-.78-.77-.87Z"/>
    <path class="cls-5" d="M496.07,357.01c.19-.29.62-.32,1.3-.09.89.29,1.41.96,1.58,2.01.04.52.38.67,1.02.47.83-.21,1.54-.2,2.13.03.74.37,1.21.92,1.39,1.64.31.66-.03,1.69-1.02,3.09-.54.79-1.11,1.29-1.73,1.52-.33.17-.54.32-.62.47-.12.12-.3.24-.53.34l-.53.18c-.54.23-.82.49-.84.77,0,.31.31.35.93.12,1.13-.35,2.06-.41,2.79-.19.76.45,1.28,1.12,1.55,1.98,0,.21-.32.52-.96.93l-1.86,1.11c-.15.08-.24.19-.28.31-.25.25-.53.38-.84.4-.33.02-.67.07-1.02.16-.45.12-.62.26-.5.4.1.15.14.42.12.84-.1.41.02.57.37.46.41-.14.58-.26.5-.34-.31-.27-.29-.44.06-.53l.53.15c.31.17.68.17,1.11,0l1.08-.31c.62-.1.97-.11,1.05-.03.06.12-.29.36-1.05.71-.68.35-.93.83-.74,1.45.06,1.01-.21,2.02-.81,3.03-.29.52-.11.84.53.96,1.75.56,2.69,1.37,2.82,2.44-.04.41-.24.59-.59.53-.62-.15-1.72-.7-3.31-1.67-.52-.21-1.05-.03-1.61.53-.97.8-2.06,1.25-3.28,1.33-.68,0-1.06-.03-1.14-.09-.02-.1.02-.21.12-.31.89-.12,1.77-.58,2.66-1.36.64-.56.65-.92.03-1.08-.85-.12-1.43-.08-1.76.12-.48.39-.74.38-.81-.03.04-.35.22-.57.53-.65.47-.45.84-.98,1.08-1.58.19-.5-.05-.63-.71-.4l-1.24.37c-1.03.47-2.23.12-3.59-1.05-.19-.19-.2-.4-.03-.65.12-.08.52-.02,1.18.19,1.24.08,2.76-.2,4.58-.84.5-.15.74-.36.74-.65.04-.37-.04-.66-.25-.87-.12-.04-.5.02-1.11.18-.33.02-.61-.04-.84-.18-.12-.17.21-.47.99-.9.21-.1.41-.24.62-.4.64-.27.96-.65.96-1.15v-.65c0-.51-.32-.61-.96-.28-1.59.87-2.39,1.78-2.41,2.75,0,.66-.25.87-.74.62-.87-.64-1.1-1.35-.71-2.14.35-.62.66-1.24.93-1.86.21-.41.35-.66.43-.74.08-.06.19-.04.31.06.06.12.1.37.12.74.08.43.43.43,1.05,0,.31-.25.65-.45,1.02-.62.64-.27.96-.53.96-.77,0-.35-.1-.51-.31-.5-.99-.04-1.23-.5-.71-1.36.29-.41.65-.82,1.08-1.24.08-.14.12-.33.12-.56,0-.25-.16-.29-.46-.12l-.62.25c-.1-.06-.11-.19-.03-.37.1-.21.32-.45.65-.74.35-.25.54-.63.56-1.15.04-.53-.26-.69-.9-.46-.66.19-1.28.09-1.86-.28-.19-.17-.25-.3-.19-.4.08-.1.47-.21,1.18-.31l1.05-.34c.52-.14.75-.53.71-1.15-.04-.99-.28-1.61-.71-1.86-.23-.21-.34-.35-.34-.43ZM492.97,362.58c-.19-.68-.21-1.02-.06-1.02.7.21,1.28.63,1.73,1.27.27.64.45,1.77.56,3.4,0,.6-.16.88-.46.84-.91-.93-1.43-2.22-1.58-3.87-.02-.21-.08-.41-.19-.62ZM499.63,375.45c.04-.45-.27-.55-.93-.28-.89.33-1.4.66-1.55.99l-1.33,2.04c.04.45.42.59,1.15.4h.56c.5.06.93-.22,1.3-.83.39-.79.66-1.56.8-2.32ZM500.56,368.24c-.58.08-1.17.24-1.76.47-.5.25-.79.68-.9,1.3l-.09.56c-.08.54.03.73.34.59.31-.1.65-.19,1.02-.25.5.21,1.21-.32,2.14-1.58.7-.82.45-1.18-.74-1.08ZM501.7,360.38c-.39-.23-1.07-.16-2.04.19-.52.19-.79.52-.84.99-.04.5.04.75.25.77.76.23.95.63.56,1.21-.85.6-1.24,1.08-1.18,1.45-.04.41-.02.61.06.59.1-.08.27-.13.5-.15.41-.02.72-.12.93-.31,1.11-1.75,1.7-3.33,1.76-4.74ZM506.06,360.29c.72-.35,1.36.04,1.92,1.18.21,1.28-.2,3.02-1.21,5.23.06.27.19.39.37.37,1.36-.7,3.11-1.35,5.23-1.95.64-.04,1.04.18,1.21.65-.08.47-.36.71-.84.71-.68,0-1.52.25-2.51.74-1.4.82-1.72,2.02-.96,3.59.64,1.57.78,3.14.43,4.7-.27.64-.1,1.16.5,1.55,1.98,1.26,3.84,2.61,5.57,4.05.39.37.61.61.65.71.02.1-.02.18-.12.22-2.56-.02-4.91-1.23-7.06-3.62-.47-.54-1-.55-1.58-.03-.93.64-2.15.87-3.65.68-.72-.19-.66-.45.19-.81,1.09-.33,1.9-.7,2.41-1.11.51-.5.46-1.05-.16-1.67-.6-.62-1.12-1.24-1.58-1.86-.39-.74-.52-1.1-.37-1.09.37.15.75.46,1.14.93l1.61,1.42c.45.37.8.22,1.05-.46.23-.7.26-1.57.09-2.6-.35-1.28-.44-2.3-.28-3.06.08-.56-.14-.76-.68-.62-.33.12-.67.28-1.02.47-.99.97-1.64.71-1.95-.77.02-.12.1-.28.25-.47,1.26-2.15,1.9-4,1.92-5.57-.08-.33-.25-.64-.5-.93-.27-.25-.3-.44-.09-.59Z"/>
    <path class="cls-5" d="M527.9,359.36c.02-.16.44-.02,1.27.43,1.84,1.71,1.69,3.55-.43,5.51-1.2,1.42-2.75,2.85-4.67,4.27-.62.29-.95.39-.99.31-.04-.31.21-.66.74-1.05,2.15-2.27,3.63-4.74,4.46-7.4.25-.58.12-1.27-.37-2.07ZM525.98,368.83c.08-.12.17-.2.25-.22.1,0,.26.31.46.93.19,1.18.22,3.19.09,6.04.02.5.07.77.15.83.25-.1.5-.26.74-.46.58-.37.91-.5.99-.37-.02.12-.11.39-.28.8-.5,1.07-.82,1.9-.96,2.48-.08,1.03-.45,1.58-1.11,1.64-.37-.02-.65-.29-.84-.81-.6-1.57-.7-3.47-.31-5.69.43-1.9.7-3.62.8-5.17ZM533.16,378.33c3.3-1.13,7.18-1.69,11.64-1.67.87.08,1.49.26,1.86.53.97.7,1.32,1.36,1.05,1.98-.46.56-.99.63-1.61.22-.83-.52-1.65-.82-2.48-.9-3.4-.58-6.64.04-9.72,1.86-.91.29-1.73.08-2.48-.62-.68-.72-.87-1.4-.56-2.04.12,0,.34.15.65.43.41.47.96.55,1.64.22ZM543.13,363.13c1.2-.37,1.99.05,2.38,1.27-.04.23-.39.38-1.05.46-2.85.17-5.2.59-7.06,1.27-1.36.06-2.51-.45-3.44-1.55-.04-.51.21-.61.74-.28.19.08.52.12.99.12l4.95-.84c.82-.18,1.65-.34,2.48-.46ZM535.52,370.01c.29-.7.47-1.07.56-1.12.41.12.54.58.37,1.36,0,.58.21.68.62.31.45-.39.73-.51.84-.34.02.17-.18.54-.59,1.12-.66.91-1.03,1.73-1.11,2.47-.31.64-.51.97-.59.99-.21.08-.44-.07-.71-.46-.82-1.16-.62-2.6.62-4.33ZM536.88,358.09c.45-.23,1.32-.15,2.6.22.68.12,1.24.58,1.67,1.36.21.58.26,1.03.16,1.36-.12.31-.32.42-.59.34-.8-.06-1.72-.81-2.75-2.26-.78-.6-1.15-.94-1.08-1.02ZM541.64,368.02c.21-.25.74-.32,1.61-.22.85.27,1.5,1.07,1.95,2.41.02.21-.09.52-.34.93-1.22,2.1-2.76,3.55-4.64,4.33-.82.16-1.24.18-1.24.06.02-.1.34-.4.96-.9,1.16-1.14,2.1-2.79,2.85-4.98.12-.37-.08-.74-.62-1.11-.41-.23-.59-.4-.53-.53Z"/>
    <path class="cls-5" d="M562.03,358.4c.76-.35,1.53,0,2.29,1.08.16.58.13,1.12-.09,1.64-.17.99-.29,2.01-.37,3.06-.06.6.14.76.62.5,1.32-.41,1.7-.99,1.15-1.73-.33-.41-.52-.68-.56-.8-.02-.12.28,0,.9.37l1.18.77c.43.25.63.58.59.99-.02.21-.32.48-.9.84l-2.48,1.36c-.45.29-.71.76-.77,1.42-.08.87-.13,1.76-.16,2.69-.02.5.22.47.71-.09l1.11-1.24c.56-.58.89-.86.99-.84.06.08-.09.42-.46,1.02-.66.93-1.36,1.86-2.1,2.79-.25.27-.39.58-.43.93-.08,2.35-.09,4.7-.03,7.06-.04.87-.16,1.45-.37,1.76-.1.15-.24.18-.4.09-.41-.23-.73-.7-.96-1.42-.08-.91-.07-1.77.03-2.6.02-.97.07-1.94.15-2.91.02-.54-.26-.49-.84.15-.89,1.44-1.69,2.1-2.41,1.98-.85-1.12-.37-2.68,1.42-4.7l1.67-2.48c.35-.53.54-1.01.56-1.42.02-.51-.27-.61-.87-.28-.83.58-1.65,1.2-2.48,1.86-.74.37-1.44.3-2.1-.22-.83-.82-.95-1.73-.37-2.72.16-.14.28.1.34.74,0,.29.13.46.4.53.39-.02.87-.21,1.42-.56,1.01-.62,2.02-1.2,3.03-1.73.54-.29.82-.73.87-1.33.16-1.98.22-3.58.15-4.8-.16-.51-.35-.81-.56-.9-.33-.25-.29-.54.12-.87ZM561.81,372.14c.02-.64-.08-.72-.31-.25-.27.54-.5,1.11-.68,1.7.02.1.19.05.49-.15.29-.29.45-.72.5-1.3ZM573.91,363.29c.82-.68,1.58-.57,2.26.34.19.45,0,.92-.56,1.39-.85.95-1.62,1.9-2.32,2.85-.27.5-.05.7.65.62,1.09.06,1.95.63,2.57,1.7.7,1.84.45,3.68-.74,5.54-.41.54-.33.94.25,1.21,1.75.78,3.18,1.7,4.27,2.75.21.31.36.62.46.93.08.62.05.96-.09,1.02-.29.1-.73-.03-1.33-.4l-4.89-2.97c-.54-.29-1.09-.26-1.67.09-2.02,1.01-3.83,1.29-5.42.83-.04-.08.25-.22.87-.4,1.03-.17,2.06-.54,3.1-1.12.6-.43.59-.79-.03-1.08-.62-.27-1.24-.46-1.86-.59-.83-.25-1.22-.42-1.18-.53.31-.31.71-.41,1.21-.31,1.09.08,2.11.26,3.06.53.54.14.94-.02,1.21-.5.95-1.49,1.36-3.09,1.24-4.8-.23-.47-.65-.61-1.27-.4-.62.06-1.27.37-1.95.93-.64.52-1.03.77-1.18.77-.33.02-.53-.2-.59-.65-.1-.37.08-.79.56-1.24.25-.25.51-.66.77-1.24l1.18-2.26c.23-.5,0-.57-.68-.22-.83.44-1.69.5-2.6.19-.5-.27-.37-.46.37-.59.58-.15,1.4-.58,2.48-1.3l1.86-1.12ZM572.4,357.22c1.26-.33,2.23-.12,2.91.62.76.91.5,1.58-.8,2.01-.41.15-.83.32-1.24.53-.47.37-.81.41-1.02.12,0-.1.28-.45.84-1.05.72-.91.5-1.4-.68-1.49-.56.12-.83,0-.8-.37.08-.08.35-.21.8-.37ZM577.32,365.8c.02-.12.34-.12.96,0,1.36-.04,2.27.75,2.72,2.38-.02.29-.15.41-.4.37-.21.02-.57-.12-1.08-.43l-.62-.22c-.62-.1-.98-.21-1.08-.31-.06-.1.05-.2.34-.28.31-.06.28-.32-.09-.77-.47-.44-.72-.68-.74-.74Z"/>
    <path class="cls-5" d="M590.8,362.27c.21-.23.42-.12.65.31.62.62.96,1.65,1.02,3.09.08,1.86.04,4.62-.12,8.29.06,1.9.07,3.8.03,5.7-.17.62-.29.96-.37,1.02-.1.02-.26-.04-.46-.18-.6-.6-.91-1.23-.93-1.89-.02-3.42.12-8.08.43-13.96-.08-.41-.13-.83-.15-1.24-.08-.7-.11-1.08-.09-1.14ZM602.81,357.1c1.98-.17,3.39-.12,4.24.12,1.53.33,2.65,1.17,3.37,2.51.37,1.28.59,3.34.65,6.19.04,4.41.03,8.87-.03,13.37-.1,1.36-.49,2.57-1.14,3.62-.48.99-1.03.99-1.67,0-.47-.91-.9-1.53-1.27-1.86-.47-.45-1.01-.71-1.61-.77-3.38-.39-6.55-.07-9.5.96-.76.21-1.6.12-2.51-.25-.31-.08-.41-.28-.31-.59.08-.08.45-.21,1.11-.37,3.07-.6,6.41-1.07,10-1.42.66-.06,1.21,0,1.64.19.21.1.4.28.59.53.33.41.82.7,1.48.87.64.31,1,.05,1.08-.77.54-5.18.59-11.02.15-17.52l-.19-1.24c-.39-1.5-1.39-2.31-3-2.41-3.51-.31-6.93.38-10.27,2.07-.87.62-1.82.78-2.85.5-.6-.19-.81-.45-.65-.81,1.11-.31,2.2-.7,3.25-1.18,2.52-.91,4.99-1.49,7.43-1.73ZM598.79,359.79c.08-.12.43-.14,1.05-.06.7.17,1.24.7,1.61,1.61.04.35.4.43,1.08.25.93-.27,1.65.05,2.17.96-.02.1-.09.21-.22.31-.14.06-.58.09-1.3.09-.39.02-.79.07-1.21.16-.52.14-.84.46-.96.96l-.22.93c-.14.56.1.64.74.25.74-.66,1.46-.73,2.14-.22.41.33.42.74.03,1.24l-3,2.6c-.52.45-.63.73-.34.84.64.27.91.71.81,1.33-.06.54-.07.85-.03.93.08.06.36-.22.84-.83.64-.72,1.23-1.44,1.76-2.17.64-.72,1.28-.85,1.92-.4.39.54.29,1.12-.31,1.76l-.68.99c-.37.52-.56.82-.56.93.21.33.78.38,1.73.15.76-.12,1.33-.04,1.7.25.45.43.21,1.07-.74,1.92-.97.74-2.27,1.28-3.9,1.61-.12-.02.09-.25.65-.68l1.24-.87c.56-.51.79-.79.71-.83l-.93-.03c-.85.17-1.31-.15-1.39-.96,0-.29.13-.7.4-1.24.35-.54.58-.99.68-1.36-.31-.29-.86.05-1.64,1.02-.91,1.3-1.44,3.14-1.61,5.51-.06.62-.15.99-.28,1.11-.27.12-.53,0-.77-.37-.33-.43-.5-.78-.5-1.05.47-1.44.63-3.08.46-4.92-.06-.6-.2-1.06-.4-1.39-.1-.12-.45.04-1.05.5l-.84.53c-.41.25-.62.72-.62,1.42l.06.43c.06.5.28.59.65.28.33-.25.55-.35.65-.31.02.08-.12.43-.43,1.05-.21.45-.44,1.15-.71,2.1-.15.62-.28.97-.4,1.05-.25.08-.48-.07-.71-.47-.39-.82-.49-1.65-.28-2.47l.09-1.36c.02-.5-.05-.72-.22-.68-.19.08-.35.12-.49.12-.25,0-.29-.13-.12-.4.62-.56,1-.85,1.14-.87.85-.54,2.07-1.61,3.68-3.22.39-.45.39-.6,0-.43-1.34.97-2.51,1.54-3.5,1.7-.58.15-1.11-.08-1.61-.68.1-.31.33-.41.68-.31.58-.04,1.4-.32,2.48-.84l.93-.43c.5-.27.74-.65.74-1.14v-1.15c0-.51-.32-.63-.96-.34-.66.25-1.32.18-1.98-.22-.12-.21.04-.4.5-.59.58-.27,1.16-.5,1.73-.71.5-.16.72-.56.68-1.17-.04-.5-.24-.91-.59-1.24-.23-.21-.31-.36-.25-.47Z"/>
    <path class="cls-5" d="M625.33,377.12c.43-.7.7-1.05.81-1.05.25,0,.38.17.4.5-.12.6-.15,1.11-.09,1.55.08.21.38.15.9-.15.72-.47,1.32-.78,1.79-.93.1,0,.21.06.31.19.04.12-.33.48-1.11,1.08-1.67,1.24-2.68,2.4-3.03,3.5-.39.82-.82.95-1.27.37-.5-.62-.69-1.27-.59-1.95.16-.83.79-1.86,1.89-3.1ZM634.43,360.38c.31-.25.82-.16,1.55.25.27.25.43.43.5.56.12.27.09.5-.09.68-.33.41-1.06.95-2.2,1.61-1.09.74-2.05,1.48-2.88,2.23-.6.54-.56.72.12.56,1.96-.81,3.95-1.58,5.97-2.32.78-.29,1.37-.07,1.76.65.21.39.04.75-.5,1.08-1.86.95-4.12,2.53-6.78,4.74-.47.47-.4.61.22.4,2.64-1.3,5.04-2.15,7.21-2.54.81,0,1.35.1,1.64.31.76.56.87,1.17.31,1.83-1.57,1.38-3.22,2.32-4.95,2.82-.37.15-.61.12-.71-.06-.02-.12.26-.44.84-.96l2.07-2.01c.12-.23.2-.4.22-.53-.02-.12-.31-.16-.87-.12-2.13.64-4.53,1.74-7.21,3.31-.74.41-1.57.96-2.48,1.64-.41.47-.78.71-1.11.71-.56-.39-.87-.9-.93-1.52-.06-.35.13-.65.59-.9.21-.04.41-.13.62-.28,3.05-2.37,5.5-4.36,7.33-5.97.54-.52.44-.65-.28-.4-.7.31-1.41.69-2.14,1.15-.82.41-1.65.87-2.48,1.36-.87.76-1.57.46-2.1-.9-.25-.7.09-1.15,1.02-1.36.45-.18,1.07-.69,1.86-1.52.82-.76,1.65-1.45,2.48-2.07,1.09-.76,1.58-1.43,1.45-2.01-.06-.21-.08-.34-.06-.4ZM634.34,355.71c-.1-.45-.12-.7-.06-.74.14-.04.51.22,1.08.77.85,1.48.82,2.61-.06,3.37-.47.56-.94.95-1.39,1.17-1.9,1.26-3.55,2.06-4.95,2.41-.62.15-.97.18-1.05.09-.02-.1.28-.37.9-.8,1.9-1.28,3.47-2.67,4.7-4.18.76-.95,1.04-1.65.84-2.11ZM632.61,372.76c.35-.29.82-.32,1.42-.09.72.37,1.12.84,1.21,1.39.06,2.17.16,4.33.31,6.5,0,.83-.21,1.65-.62,2.48-.49.93-1.06,1.12-1.7.59-.7-.78-1.46-1.54-2.26-2.26-.21-.23-.33-.4-.37-.53.19-.41.58-.33,1.18.25,1.09.91,1.69.74,1.79-.5.23-2.12.18-4.24-.15-6.35-.1-.41-.25-.69-.43-.83-.41-.23-.54-.44-.37-.65ZM638.42,375.54c.08-.12.42-.15,1.02-.09.66.06,1.37.25,2.13.56,1.65.7,2.32,1.82,2.01,3.34-.64.62-1.4.41-2.29-.62-.43-.82-1.23-1.68-2.38-2.57-.33-.17-.5-.37-.5-.62Z"/>
    <path class="cls-5" d="M659.98,375.45l.46-.19c.08.06-.05.4-.4,1.02-1.55,2.02-2.88,3.47-3.99,4.33-.66.41-1.48.5-2.45.25-.45-.08-.83-.21-1.11-.37-.19-.19-.21-.37-.06-.56.12-.06.39-.1.81-.12,1.63-.6,3.88-2.05,6.75-4.36ZM658.28,359.05c-.02-.7.03-1.08.15-1.14.31-.06.66.21,1.05.8.97,1.07.95,2.11-.06,3.09-.81.93-2.05,2.56-3.75,4.89-.37.6-.28.76.28.5.99-.52,1.74-.99,2.26-1.42,1.01-1.22,1.91-1.28,2.69-.19.08.23-.1.64-.56,1.24l-2.72,3.71c-.33.54-.16.73.53.59.6-.35,1.2-.4,1.79-.16.43.31.54.67.31,1.09-.72,1.36-1.57,2.49-2.54,3.37-.62.45-.98.65-1.08.59-.04-.1.15-.47.59-1.08.43-.76.82-1.54,1.18-2.32l.03-.28c-.06-.08-.42-.04-1.08.12-.54.23-1.16.62-1.86,1.18-.56.43-.9.64-1.02.62-.58-.41-.69-.9-.34-1.45.95-.54,1.78-1.43,2.51-2.69.56-.82,1.07-1.65,1.55-2.47.31-.64.21-.76-.31-.37-1.26,1.09-2.42,1.95-3.5,2.57-.37.25-.77.14-1.21-.34-.31-.33-.4-.79-.28-1.36.33-.29.66-.63.99-1.02,2.74-3.38,4.21-6.06,4.39-8.05ZM667.69,366.42c.37-.8.63-1,.77-.59.19,1.42-.66,3.31-2.54,5.66.29.29.84.17,1.64-.37.99-.44,1.98-.92,2.97-1.46.5-.29.44-.71-.15-1.27-.43-.23-.53-.44-.28-.65,1.38,0,2.44.45,3.19,1.36.5.83.42,1.37-.22,1.64-.27.06-.57-.08-.9-.43-.43-.5-.92-.5-1.46,0-.8.64-1.61,1.24-2.41,1.79-.54.39-.73.7-.59.93.39,1.96-.32,4.01-2.14,6.16-1.3,1.4-2.68,2.16-4.15,2.26-.62,0-.97-.03-1.05-.09-.02-.1.27-.26.87-.47.85-.25,1.73-.91,2.66-1.98,1.3-1.32,2.1-2.89,2.41-4.7.04-.47-.27-.52-.93-.12-.62.52-1.16.51-1.61-.03-.81-1.32-.73-2.23.22-2.72,1.79-1.65,3.02-3.29,3.68-4.92ZM672.77,361.25c.6-.25,1.29-.03,2.07.65.21.31.13.55-.22.71-.19.06-.49.09-.9.09-1.77.25-3.42.63-4.95,1.14-.58.15-1.2.45-1.86.93-1.2.7-2.43.74-3.71.12-.33-.19-.44-.41-.34-.68.08-.08.43-.16,1.05-.25.52-.15,1.36-.45,2.54-.93,1.2-.43,3.3-1.03,6.31-1.79ZM666.76,357.19c.12-.1.5-.13,1.11-.09,1.44.06,2.39.75,2.85,2.07.17.56,0,.92-.49,1.08-.37.06-.77-.11-1.21-.53-.37-.5-.83-1.03-1.36-1.61-.68-.52-.98-.82-.9-.93ZM668.9,372.82c.23-.58.71-.78,1.46-.62.91.33.99,1.21.25,2.63-.47,1.65-.57,3.06-.28,4.24.47,1.09,1.16,1.73,2.04,1.92,1.38.27,2.73.05,4.05-.65,1.22-.74,1.81-1.81,1.79-3.22.02-.62.07-.96.15-1.02.72.97,1.17,2.16,1.33,3.56.06.6-.04,1.12-.31,1.58-.37.45-1.07.84-2.1,1.15-1.49.39-3.05.42-4.7.09-2.15-.6-3.34-1.89-3.59-3.87-.19-1.32-.04-2.93.43-4.83.08-.5.02-.76-.19-.81-.21,0-.32-.05-.34-.15Z"/>
  </g>
  <g>
    <path class="cls-5" d="M468.48,309.59c.72-.39,1.36-.15,1.92.71.1.29.11.7.03,1.24-.21,2.52-.29,5.78-.25,9.78.19,1.82.21,3.09.06,3.84-.16.56-.41.74-.74.56-1.03-1.05-1.4-2.35-1.11-3.9.14-.99.26-2.72.34-5.2l.15-5.35c0-.5-.09-.84-.28-1.02-.33-.06-.37-.28-.12-.65ZM473.86,302.91c.52-.47,1.03-.44,1.55.09.87.7,1.03,1.32.49,1.86-1.44,1.09-2.27,2.44-2.48,4.06-.19,1.42.41,2.64,1.79,3.65.45.29.7.63.74,1.02-.23.6-.74.84-1.55.71-1.16-.08-2.35-.44-3.59-1.08l-.06-.25c.06-.1.4-.09,1.02.03.52.08.99.04,1.42-.12.25-.23.21-.58-.12-1.05-.85-1.55-.9-3.51-.16-5.88-.08-.08-.37,0-.87.22-.97.41-2.18.42-3.62.03-.23-.19-.04-.35.56-.5,2.06-.47,3.68-1.4,4.86-2.78ZM484.85,305.29c1.73-.47,3.31-.69,4.74-.65.93.08,1.62.55,2.07,1.39.02.23-.11.41-.4.56-.43.23-.9.22-1.39-.03-.49-.19-1.24-.25-2.23-.19-2.97.17-5.45.88-7.43,2.14-1.01.54-2.3.71-3.87.53-.52-.02-.66-.24-.43-.65.47-.12.98-.29,1.52-.49,2.06-1.03,3.71-1.69,4.95-1.98.54-.08,1.36-.29,2.48-.62ZM482.5,310.61c.76-.43,1.41-.54,1.95-.31.16.12.2.49.09,1.08-.66,1.18-1.25,2.35-1.76,3.53-.16.5-.09.65.22.46.37-.21.79-.24,1.27-.09.56.25.79.59.71,1.02-.1.1-.46.22-1.08.34l-1.89.84c-.37.25-.78.16-1.24-.25-.25-.25-.29-.54-.12-.87.64-.99,1.2-2.15,1.67-3.47.15-.68-.04-.76-.56-.25-1.26,1.22-2.05,2.36-2.38,3.44-.06.66-.2,1.16-.4,1.49-.16.29-.49.22-.96-.22-.7-.76-.77-1.86-.22-3.28.23-.62.49-1.24.77-1.86.19-.66.32-1.02.4-1.08.41.08.58.46.5,1.14l-.12,1.05c0,.52.24.5.71-.06.6-.76,1.41-1.65,2.45-2.66ZM486.43,307.89c.85-.27,1.4.05,1.67.96.64,3.88.92,7.73.84,11.54-.1,2.06-.61,3.71-1.52,4.95-1.63,1.34-3.54,1.94-5.73,1.79-.6.08-.94-.11-1.02-.59.23-.25.63-.41,1.21-.5,2.93-.72,4.62-2.71,5.08-5.97.68-4.79.67-8.49-.03-11.11-.39-.64-.56-1-.5-1.08Z"/>
    <path class="cls-5" d="M505.82,303.34c4.66-1.53,8.83-2.3,12.5-2.32.95-.06,1.78.26,2.48.96.47.54.38.95-.28,1.24-.29.1-.66.05-1.11-.15-2.44-.78-5.73-.62-9.87.5-.95.29-1.98.78-3.1,1.48-.27.17-.82.22-1.67.15-1.14,0-1.94-.17-2.41-.5-.12-.12.21-.33.99-.62.7-.08,1.53-.33,2.48-.74ZM503.28,313.65c.1-.08.43.23.99.93.37.5.5,1.07.4,1.73-.04,2.87-.12,5.78-.25,8.73.02.52-.15.82-.53.93-.16-.02-.44-.31-.84-.87-.25-.66-.32-1.77-.22-3.34.06-1.65.2-3.3.4-4.95.08-.68.11-1.37.09-2.07-.08-.68-.1-1.04-.06-1.08ZM504.89,307.67c.25-.25.38-.65.4-1.21.12-.04.25,0,.37.12.08.12.18.39.28.81.06.41.4.39,1.02-.06.54-.45.88-.58,1.02-.37.02.1-.28.41-.9.93-.66.62-1.06,1.24-1.21,1.85-.23.74-.58.95-1.05.62-.68-1.15-.66-2.05.06-2.69ZM510.56,310.61c2.25-.7,4.3-.95,6.16-.74.95.06,1.78.38,2.48.96.76.64,1.2,1.45,1.3,2.44.33,3.73.41,7.8.25,12.19-.02.87-.33,1.9-.93,3.09-.56,1.05-1.28.92-2.17-.4-.41-.52-.77-.86-1.08-1.02-.66-.29-1.02-.65-1.08-1.08.02-.1.38-.05,1.08.16.7.29,1.36.33,1.98.12.19-.15.33-.56.43-1.24l.06-10.34c-.1-1.03-.28-1.86-.53-2.48-.31-.74-1.06-1.19-2.26-1.33-1.3-.12-2.75.05-4.36.53-.56.16-.61.55-.16,1.15.35.7.41,1.4.19,2.1-.39,2.27-.41,4.76-.06,7.46.23,1.36.05,2.35-.53,2.97-.14.1-.38-.15-.71-.77-.1-.35-.16-.7-.19-1.05-.04-.5-.09-.69-.15-.59-.27.29-.73.21-1.39-.25-.58-.62-1.16-.7-1.73-.25-.21.19-.41.33-.62.43-.64.31-1,.44-1.08.4-.15-.15-.04-.36.31-.65l.84-.84c.43-.54.48-.91.15-1.11-.39-.25-.62-.41-.68-.5-.02-.33.29-.4.93-.22.5.1.86-.14,1.08-.71l.09-.28c0-.62.06-.94.19-.96.16.02.46.4.9,1.15.14.39.12.75-.06,1.08-.12.23-.06.41.19.56.37.25.62.55.74.9.19.47.28.47.28,0l.09-6.16c.08-.87.08-1.74,0-2.63-.12-.52-.44-.67-.96-.47-.33.12-.67.28-1.02.47-.82.58-1.65.74-2.48.5-.58-.08-.78-.32-.62-.71,2.25-.89,3.96-1.52,5.14-1.89ZM508.14,313.86c-.15-.47.01-.65.46-.53.66.66.87,1.36.62,2.1-.12.25.03.53.46.84.37.37.57.65.59.83-.08.52-.5.66-1.24.43-.66-.27-1.28-.15-1.86.34l-.56.43c-.62.37-.98.57-1.08.59-.1-.06-.14-.14-.12-.25.04-.1.26-.34.65-.71,1.18-1.03,1.24-1.53.19-1.49-.5-.08-.77-.16-.84-.25.04-.27.25-.41.62-.43l.87-.15c.5-.04.91-.37,1.24-.99.06-.21.06-.47,0-.77ZM517.46,304.36c1.18-.18,1.95.21,2.32,1.18,0,.35-.21.71-.62,1.08-.99,1.22-2.01,2.07-3.06,2.57-.1-.02-.18-.07-.22-.15l1.83-2.97.28-.74c-.15-.25-.5-.29-1.05-.12-1.22.39-2.77,1.5-4.64,3.31-.52.58-.86.88-1.02.9-.31.02-.57-.12-.77-.43-.48-.81-.28-1.68.59-2.63.52-.76.81-1.12.87-1.08.08.06.1.33.06.8-.1.5-.1.78,0,.87.12,0,.43-.16.93-.5,1.79-1.15,3.3-1.85,4.52-2.07ZM514.8,313.18c.02-.62.08-.95.19-.99.25-.1.54.16.87.8.27.54.33.95.19,1.24-.1.23-.01.39.28.5.7.39,1.12.84,1.27,1.33,0,.27-.11.45-.34.56-.1.04-.13.22-.09.53-.04.64-.37,1.29-.99,1.95-.45.52-.37.97.25,1.36.74.54,1.2,1.21,1.36,2.01.14.47.04.79-.31.96-.62-.04-1.36-.7-2.23-1.98-.41-.45-.94-.45-1.58,0-.66.39-1.02.58-1.08.56-.08-.06-.12-.13-.12-.22.04-.08.32-.38.84-.9.47-.52.47-.96,0-1.33-.51-.33-.78-.55-.8-.65.04-.12.12-.2.25-.22l.8.25.28.09c.5.23.94.03,1.33-.59.25-.37.45-.74.62-1.12.21-.56.13-.92-.22-1.08-.43-.21-.94-.04-1.52.5l-.28.22c-.56.39-.9.59-1.02.59-.1-.08-.15-.16-.12-.25.23-.35.48-.7.77-1.05.39-.5.25-.8-.43-.93-.29,0-.44-.12-.46-.37.12-.1.47-.22,1.05-.34.58-.02.98-.37,1.21-1.05l.06-.37Z"/>
    <path class="cls-5" d="M538.18,302.32c.19-.21.66-.21,1.42,0,1.26.45,1.82,1.29,1.67,2.51.1,1.26.3,2.49.59,3.68.16.56.46.68.9.37l1.64-1.24c.56-.43.81-.76.77-.99-.16-.25-.2-.4-.09-.46.16-.02.42.05.77.22.81.12,1.33.38,1.58.77.19.45-.12.83-.93,1.14-1.03.62-2.06,1.31-3.1,2.07-.56.41-.75.87-.59,1.36.47,1.44,1.03,2.92,1.67,4.42.27.54.58.48.93-.18.89-1.79,1.29-3.05,1.21-3.78-.21-.47-.08-.74.37-.8.5.23.79.54.9.93.56.87.71,1.69.46,2.47-.41.95-1.07,1.98-1.98,3.1-.43.54-.49,1.07-.15,1.61,1.4,2.35,3.22,4.34,5.45,5.97.64.43,1.04.33,1.21-.31.21-.72.34-1.65.4-2.79.12-.14.33.09.62.71.25,1.18.54,2.38.87,3.62.19.54.29.95.31,1.24-.12.76-.62,1.03-1.48.8-3.4-1.24-6.22-3.92-8.45-8.05-.35-.62-.84-.66-1.46-.12-1.07.91-1.94,1.46-2.6,1.64-.29-.16-.2-.44.28-.84.81-.74,1.49-1.48,2.04-2.23.35-.5.39-1.05.12-1.67-.54-1.13-1.16-2.68-1.86-4.64-.23-.64-.64-.75-1.24-.34-.97.72-1.9,1.54-2.79,2.45-.35.41-.86.63-1.52.65-1.26-.15-1.86-.82-1.79-2.04.04-.23.1-.4.19-.53.12-.19.25-.08.37.31.08.74.58.79,1.49.15,1.22-.99,2.43-1.9,3.65-2.72.52-.37.68-.87.5-1.49-.43-1.53-.83-3.05-1.18-4.58-.1-.41-.26-.82-.46-1.24-.1-.21-.28-.43-.53-.68-.31-.21-.37-.37-.19-.5ZM546.73,301.08c.1-.08.46-.07,1.08.03.33.08.66.12.99.12,1.2.12,2.16.74,2.88,1.85.5.77.42,1.21-.22,1.33-.19,0-.48-.07-.9-.22-.41-.19-.86-.28-1.33-.28-.62.02-.94-.04-.96-.18.04-.12.16-.23.37-.31.52-.16.37-.53-.43-1.08l-.62-.46c-.6-.43-.89-.7-.87-.81Z"/>
    <path class="cls-5" d="M574.07,301.21c.14-.16.28-.27.4-.31.91-.17,1.58.22,2.01,1.14.1.33.08.74-.06,1.24-.1.39-.18.78-.22,1.18-.08.56-.04.81.12.77.82-.14,1.41.21,1.76,1.05.02.15-.38.35-1.21.62-.62.21-.95.62-.99,1.24-.21,2.62-.34,5.27-.4,7.95-.02.43.31.63.99.59.5.04.88.18,1.14.4.45.31.54.62.25.93-.15.12-.53.2-1.15.22l-.56.12c-.49.14-.76.53-.8,1.15-.21.72-.58.74-1.11.06-.21-.35-.58-.44-1.11-.25-1.61.47-3.17,1.17-4.67,2.07-1.13,1.03-2.38,1.24-3.75.62-.58-.17-.7-.44-.37-.84l1.18-.22c2.06-1.01,4.55-2.05,7.46-3.13.5-.18.77-.6.84-1.24.25-2.74.44-5.49.59-8.23.04-.47-.27-.61-.93-.4-.66.23-1.32.49-1.98.77-.47.23-.72.67-.74,1.33-.21,2.87-.29,5.12-.25,6.75,0,.62-.04,1.08-.12,1.39-.17.31-.31.47-.43.49-.5-.12-.78-.49-.87-1.11-.19-2-.16-4.33.06-6.99.02-.47-.29-.72-.93-.74-.8-.06-1.52-.32-2.14-.77-.27-.29-.39-.5-.37-.62.1-.27.38-.32.84-.15.56.25,1.16.22,1.8-.09.64-.27.99-.74,1.05-1.42.12-.58.01-1.15-.34-1.73-.51-.27-.49-.58.06-.93.47-.14.96-.03,1.46.34.66.58.84,1.25.53,2.01-.08.5.19.63.8.4l1.95-.71c.47-.14.73-.55.77-1.21.27-1.42.18-2.46-.28-3.12-.35-.08-.44-.29-.28-.62ZM568.66,322.81c.33-.64.55-.97.65-.99.12.02.23.3.31.84.04.54.27.66.68.37.35-.23.59-.34.71-.34.19.1-.04.55-.68,1.33-.62.7-.99,1.32-1.11,1.86-.12.41-.26.73-.4.96-.23.25-.53.23-.9-.06-.91-1.15-.66-2.47.74-3.96ZM572.12,310.34c-.06-.37.06-.5.37-.37.54.25.83.63.87,1.14.1.56-.25,1.16-1.05,1.8-.29.25-.45.5-.5.77.04.1.37.28.99.53.39.12.71.5.96,1.15.06.35-.21.67-.81.96-.8.23-1.47.34-2.01.34-.08-.08.07-.27.46-.56.7-.33.75-.82.16-1.49-.43-.45-.53-.87-.28-1.24.56-1.22.84-2.23.84-3.03ZM574.1,322.25c-.23-.18-.24-.4-.03-.65.1-.02.47.18,1.11.59,1.28.99,1.7,2.15,1.27,3.47-.16.29-.4.37-.71.25-.5-.31-.78-.7-.87-1.17-.06-.7-.32-1.53-.77-2.48ZM578.78,310.52c.06-.08.13-.13.22-.15.08.04.32.35.71.93.19.27.22.79.09,1.58,0,.5.32.61.96.34,1.82-.85,3.47-1.4,4.95-1.67.99-.27,1.82-.32,2.48-.16.89.33,1.08.79.59,1.39-.49.23-1.35.33-2.57.31-.52.08-.63.43-.34,1.05.89,4.39.87,7.84-.06,10.34-.87,1.88-2.34,3.11-4.42,3.68-.68.16-1.06.05-1.14-.34.08-.12.33-.33.74-.62,1.47-.87,2.57-2.42,3.31-4.67.78-2.5.92-5.28.4-8.36-.23-.5-.59-.69-1.08-.59-.68.17-1.39.41-2.14.74-.33.19-.82.22-1.48.09-.17-.08-.25.13-.25.65-.08,2.27-.09,4.57-.03,6.9,0,.5-.15.84-.46,1.02-.52,0-.99-.54-1.42-1.61-.21-.74-.16-1.57.12-2.48.6-2.6.88-5.39.84-8.39ZM582.34,303.28c.21-.39.63-.24,1.27.47,1.24,1.32,1.28,2.56.12,3.71-1.86,1.42-3.38,2.31-4.58,2.66-.16-.06,0-.36.5-.9,1.4-1.36,2.31-2.6,2.72-3.71.27-.5.37-.91.31-1.24-.15-.33-.26-.66-.34-.99Z"/>
  </g>
</svg>