<?xml version="1.0" encoding="UTF-8"?>
<svg id="_圖層_1" data-name="圖層 1" xmlns="http://www.w3.org/2000/svg" viewBox="0 0 841.89 595.28">
  <defs>
    <style>
      .cls-1 {
        fill: #060001;
      }

      .cls-2 {
        fill: #535051;
      }

      .cls-3 {
        fill: #231815;
      }

      .cls-4 {
        fill: #fff;
      }

      .cls-5 {
        fill: #1a0b08;
      }
    </style>
  </defs>
  <g>
    <circle class="cls-2" cx="116.38" cy="290.53" r="86.15"/>
    <g>
      <polygon class="cls-4" points="73.6 364.64 30.81 290.53 73.6 216.42 159.17 216.42 201.96 290.53 159.17 364.64 73.6 364.64"/>
      <path class="cls-1" d="M158.88,216.92l42.5,73.61-42.5,73.61h-85l-42.5-73.61,42.5-73.61h85M159.46,215.92h-86.15l-43.08,74.61,43.08,74.61h86.15l43.08-74.61-43.08-74.61h0Z"/>
    </g>
    <circle class="cls-3" cx="116.38" cy="290.53" r="17.09"/>
  </g>
  <g>
    <path class="cls-5" d="M336.61,221.78c4.76-.75,8.01-.94,9.77-.56,3.76,1.5,6.26,4.01,7.51,7.51.38,2.25-.5,6.01-2.63,11.27-3.88,11.9-6.51,26.86-7.89,44.9-.5,3.51.63,5.26,3.38,5.26l2.44.19c3.63,1.13,3.57,3.13-.19,6.01-.88.75-1.75,1.25-2.63,1.5-3.01,1.25-4.63,3.82-4.88,7.7v12.77c1,6.51,4.76,9.58,11.27,9.2,4.76-1.25,5.64.13,2.63,4.13-4.88,7.14-9.21,11.27-12.96,12.4-5.64-1.13-8.95-5.19-9.96-12.21-.13-8.39,0-17.1.38-26.11.12-3-1.69-4.63-5.45-4.88-4.13-.62-8.33-1-12.59-1.13-3.51.38-5.95,1.76-7.32,4.13-8.64,17.03-17.97,31.62-27.99,43.77-4.51,4.88-9.39,8.26-14.65,10.14-7.14,1.63-10.52-1.69-10.14-9.95-.5-5.64,2.07-12.27,7.7-19.91,3.13-3.38,4.76-4.76,4.88-4.13-2.75,6.01-4.01,11.33-3.76,15.96,1,3.76,3.51,4.26,7.51,1.5,8.76-6.88,17.28-18.53,25.55-34.94,1.75-3.26,1.69-4.76-.19-4.51-1.88,0-2.94-.25-3.2-.75,1.38-2,4.01-4.2,7.89-6.58,1.5-.62,2.57-1.37,3.2-2.25,9.39-18.28,17.34-35.81,23.85-52.6,1.88-5.26,2.57-9.02,2.07-11.27-2.13-4.51,0-6.7,6.39-6.58ZM338.49,244.13c.5-3.76-.25-3.5-2.25.75-6.14,13.65-12.77,27.49-19.91,41.51-1.5,3.13-.31,4.82,3.57,5.07,3.26.88,6.58,1,9.96.38,2.5-.63,3.94-2.82,4.32-6.58,1-13.65,2.44-27.36,4.32-41.14Z"/>
    <path class="cls-5" d="M417.7,263.11c5.76-2.75,10.52-1.94,14.28,2.44.75,5.13-.5,11.77-3.76,19.91-1.25,4.01-1.63,6.14-1.13,6.39,5.51.13,11.02-3.19,16.53-9.96,11.89-13.27,21.85-19.72,29.87-19.35,4.76,1,6.76,4.01,6.01,9.02-.13,2.63-1.94,4.76-5.45,6.39l-3.76,2.63c-4.63,4.01-6.7,4.63-6.2,1.88.88-2.25,1.32-3.63,1.32-4.13-2.76-1.88-6.95.06-12.59,5.83-10.65,11.4-19.23,17.03-25.74,16.91-2.13-.25-3.82,1.5-5.07,5.26-1.5,4.64-2.82,9.46-3.94,14.46-1.63,5.26-2.19,9.27-1.69,12.02.5.5,1.88.38,4.13-.38,2.88-.87,2.5,1.32-1.13,6.58-1.88,2.13-3.26,4.26-4.13,6.39-4.51,3.38-8.27,2.56-11.27-2.44-.75-3.26-.5-7.01.75-11.27,7.14-26.3,11.58-44.08,13.34-53.35,0-3-.38-4.88-1.13-5.64-.75-.12-3.01.44-6.76,1.69l-3.76,1.13c-1.25-.12-2.01-.44-2.25-.94.25-.62,2.25-2.32,6.01-5.07,2.5-2.38,5.01-4.51,7.51-6.39Z"/>
    <path class="cls-5" d="M545,264.61c5.38-2.38,11.02-2.69,16.91-.94,2.51,2.51,5.01,2.82,7.51.94,2.63-1.88,4.82-1.94,6.58-.19,0,.88-1.57,3.63-4.7,8.26-6.14,10.27-10.77,20.29-13.9,30.06-2.01,5.76-4.7,15.78-8.08,30.05-3,11.52-7.77,21.54-14.28,30.06-7.26,8.01-14.71,12.02-22.35,12.02-3,.38-5.64-1-7.89-4.13-1.38-4.26-.06-7.45,3.95-9.58,3.63-3.63,5.7-5.39,6.2-5.26.38.62.44,1.88.19,3.76-.25,2-.19,3.26.19,3.75,2.13,1.25,4.51,1,7.14-.75,5.13-3.38,8.58-7.26,10.33-11.65,1.63-3,3.07-6.7,4.32-11.08,1.13-3.76.25-4.63-2.63-2.63-5.14,4.51-9.71,7.82-13.71,9.95-12.02,4.64-19.28.57-21.79-12.21-.38-10.89,2.51-21.79,8.64-32.68,7.64-15.65,20.1-28.24,37.38-37.76ZM547.82,275.69c-7.64.75-15.21,6.01-22.73,15.78-10.02,14.02-14.53,26.55-13.52,37.57,0,2.63,1.81,4.5,5.45,5.64,5.88,1.38,12.33-1.51,19.35-8.64,3.38-3.38,5.32-6.32,5.82-8.83,2.63-10.27,6.32-20.29,11.08-30.06,2-2.75,3.07-5.19,3.19-7.33-.88-3.63-3.76-5.01-8.64-4.13Z"/>
    <path class="cls-5" d="M635.3,262.16c2.5-1,4.76-.94,6.76.19,4.26,2.38,5.01,6.51,2.25,12.4-8.77,20.66-15.53,37.82-20.29,51.47-.38,3.26.12,4.95,1.5,5.07,5.38-.87,11.27-4.45,17.66-10.71,11.02-10.14,19.85-21.73,26.49-34.75,2.5-5.01,5.26-10.02,8.27-15.03,3.88-5.51,8.51-7.52,13.9-6.01.62.63-.63,3.32-3.76,8.08-11.9,16.91-19.54,36.32-22.92,58.23,0,3.64.25,5.95.75,6.95.75,1.38,3.01,1.32,6.76-.19.62.25.94.69.94,1.31-.38.63-1.94,1.95-4.7,3.95-2.38,1.62-4.01,3.31-4.88,5.07-5.01,4.38-8.26,4.32-9.77-.19-1.25-5.39-.69-13.97,1.69-25.74,1-3.38,0-3.19-3.01.57-11.77,15.78-24.3,24.61-37.57,26.48-8.76-.38-11.02-4.94-6.76-13.71,9.27-19.03,16.34-38.26,21.23-57.67,2.38-4.26,1.5-6.51-2.63-6.76-2.13-.38-2.76-1.06-1.88-2.07,3.5-1.63,6.82-3.94,9.96-6.95Z"/>
    <path class="cls-5" d="M745.13,271.93c14.53-10.52,29.12-13.03,43.77-7.51,6.13,3,7.58,6.51,4.32,10.52-3,1.13-5.95,3.82-8.83,8.08-.63.25-1.76-1.56-3.38-5.45-5.26-4.76-12.71-5.51-22.35-2.25-7.89,3.13-12.02,7.32-12.4,12.58-.13,3.51,3.57,7.27,11.08,11.28,5.01,2.25,10.02,4.76,15.03,7.51,7.14,4.13,10.27,8.58,9.39,13.34-2.01,10.52-9.77,18.78-23.29,24.8-10.77,5.51-21.98,6.01-33.62,1.5-4.13-2.88-6.2-5.57-6.2-8.08s.63-4.38,1.88-5.64l4.13-5.26c1.25-1,2.25.38,3,4.13,1.63,3.38,3.88,5.32,6.76,5.82,11.02,3.51,21.1.75,30.24-8.26,2.63-3.26,3.57-6.51,2.82-9.77-2.13-4.26-7.27-8.2-15.4-11.84-6.51-2.88-11.46-6.2-14.84-9.95-6.01-8.01-3.38-16.53,7.89-25.55Z"/>
  </g>
</svg>